####
#
#	OBJ File Generated by LightWave3D
#	LightWave3D OBJ Export v2.3
#
####
o circleMenu_inner_circle.obj
mtllib circleMenu_inner_circle.mtl
g default
v 0 1 -0
v 0.258819 0.965926 -0
v 0.5 0.866025 -0
v 0.707107 0.707107 -0
v 0.866025 0.5 -0
v 0.965926 0.258819 -0
v 1 0 -0
v 0.965926 -0.258819 -0
v 0.866025 -0.5 -0
v 0.707107 -0.707107 -0
v 0.5 -0.866025 -0
v 0.258819 -0.965926 -0
v 0 -1 -0
v -0.258819 -0.965926 -0
v -0.5 -0.866025 -0
v -0.707107 -0.707107 -0
v -0.866025 -0.5 -0
v -0.965926 -0.258819 -0
v -1 0 -0
v -0.965926 0.258819 -0
v -0.866025 0.5 -0
v -0.707107 0.707107 -0
v -0.5 0.866025 -0
v -0.258819 0.965926 -0
v -4.4062e-16 0.9 -0
v 0.232937 0.869333 -0
v 0.45 0.779423 -0
v 0.636396 0.636396 -0
v 0.779423 0.45 -0
v 0.869333 0.232937 -0
v 0.9 8.32667e-17 -0
v 0.869333 -0.232937 -0
v 0.779423 -0.45 -0
v 0.636396 -0.636396 -0
v 0.45 -0.779423 -0
v 0.232937 -0.869333 -0
v 8.32667e-17 -0.9 -0
v -0.232937 -0.869333 -0
v -0.45 -0.779423 -0
v -0.636396 -0.636396 -0
v -0.779423 -0.45 -0
v -0.869333 -0.232937 -0
v -0.9 -8.32667e-17 -0
v -0.869333 0.232937 -0
v -0.779423 0.45 -0
v -0.636396 0.636396 -0
v -0.45 0.779423 -0
v -0.232937 0.869333 -0
vn 0 0 -1
vn 0 0 -1
vn 0 0 -1
vn 0 -0 -1
vn 0 -0 -1
vn 0 -0 -1
vn 0 0 -1
vn 0 0 -1
vn 0 0 -1
vn 0 -0 -1
vn 0 -0 -1
vn 0 -0 -1
vn 0 -0 -1
vn 0 -0 -1
vn 0 -0 -1
vn 0 0 -1
vn 0 0 -1
vn 0 0 -1
vn 0 -0 -1
vn 0 -0 -1
vn 0 -0 -1
vn 0 0 -1
vn 0 0 -1
vn 0 0 -1
vn 0 0 -1
vn 0 0 -1
vn 0 0 -1
vn 0 -0 -1
vn 0 -0 -1
vn 0 -0 -1
vn 0 0 -1
vn 0 0 -1
vn 0 0 -1
vn 0 -0 -1
vn 0 -0 -1
vn 0 -0 -1
vn 0 -0 -1
vn 0 -0 -1
vn 0 -0 -1
vn 0 0 -1
vn 0 0 -1
vn 0 0 -1
vn 0 -0 -1
vn 0 -0 -1
vn 0 -0 -1
vn 0 0 -1
vn 0 0 -1
vn 0 0 -1
vn 0 -0 -1
vn 0 -0 -1
vn 0 -0 -1
vn 0 0 -1
vn 0 0 -1
vn 0 0 -1
vn 0 -0 -1
vn 0 -0 -1
vn 0 -0 -1
vn 0 -0 -1
vn 0 -0 -1
vn 0 -0 -1
vn 0 0 -1
vn 0 0 -1
vn 0 0 -1
vn 0 -0 -1
vn 0 -0 -1
vn 0 -0 -1
vn 0 0 -1
vn 0 0 -1
vn 0 0 -1
vn 0 -0 -1
vn 0 -0 -1
vn 0 -0 -1
vn 0 0 -1
vn 0 0 -1
vn 0 0 -1
vn 0 -0 -1
vn 0 -0 -1
vn 0 -0 -1
vn 0 0 -1
vn 0 0 -1
vn 0 0 -1
vn 0 -0 -1
vn 0 -0 -1
vn 0 -0 -1
vn 0 -0 -1
vn 0 -0 -1
vn 0 -0 -1
vn 0 0 -1
vn 0 0 -1
vn 0 0 -1
vn 0 -0 -1
vn 0 -0 -1
vn 0 -0 -1
vn 0 0 -1
vn 0 0 -1
vn 0 0 -1
vn 0 0 -1
vn 0 0 -1
vn 0 0 -1
vn 0 -0 -1
vn 0 -0 -1
vn 0 -0 -1
vn 0 0 -1
vn 0 0 -1
vn 0 0 -1
vn 0 -0 -1
vn 0 -0 -1
vn 0 -0 -1
vn 0 0 -1
vn 0 0 -1
vn 0 0 -1
vn 0 -0 -1
vn 0 -0 -1
vn 0 -0 -1
vn 0 0 -1
vn 0 0 -1
vn 0 0 -1
vn 0 -0 -1
vn 0 -0 -1
vn 0 -0 -1
vn 0 0 -1
vn 0 0 -1
vn 0 0 -1
vn 0 -0 -1
vn 0 -0 -1
vn 0 -0 -1
vn 0 0 -1
vn 0 0 -1
vn 0 0 -1
vn 0 0 -1
vn 0 0 -1
vn 0 0 -1
vn 0 -0 -1
vn 0 -0 -1
vn 0 -0 -1
vn 0 0 -1
vn 0 0 -1
vn 0 0 -1
vn 0 -0 -1
vn 0 -0 -1
vn 0 -0 -1
vn 0 0 -1
vn 0 0 -1
vn 0 0 -1
g Default
usemtl Default
s off
f 28//1 4//2 5//3
f 28//4 5//5 29//6
f 29//7 5//8 6//9
f 29//10 6//11 30//12
f 30//13 6//14 31//15
f 31//16 6//17 7//18
f 31//19 7//20 8//21
f 32//22 31//23 8//24
f 32//25 8//26 33//27
f 33//28 8//29 9//30
f 33//31 9//32 34//33
f 34//34 9//35 10//36
f 3//37 4//38 28//39
f 27//40 3//41 28//42
f 2//43 3//44 27//45
f 26//46 2//47 27//48
f 25//49 2//50 26//51
f 1//52 2//53 25//54
f 24//55 1//56 25//57
f 24//58 25//59 48//60
f 24//61 48//62 47//63
f 23//64 24//65 47//66
f 23//67 47//68 46//69
f 22//70 23//71 46//72
f 22//73 46//74 21//75
f 21//76 46//77 45//78
f 21//79 45//80 20//81
f 20//82 45//83 44//84
f 20//85 44//86 43//87
f 19//88 20//89 43//90
f 19//91 43//92 18//93
f 43//94 42//95 18//96
f 18//97 42//98 41//99
f 18//100 41//101 17//102
f 17//103 41//104 40//105
f 17//106 40//107 16//108
f 16//109 40//110 15//111
f 40//112 39//113 15//114
f 15//115 39//116 14//117
f 39//118 38//119 14//120
f 38//121 37//122 14//123
f 14//124 37//125 13//126
f 37//127 12//128 13//129
f 37//130 36//131 12//132
f 36//133 35//134 12//135
f 35//136 11//137 12//138
f 35//139 34//140 11//141
f 34//142 10//143 11//144
