####
#
#	OBJ File Generated by LightWave3D
#	LightWave3D OBJ Export v2.3
#
####
o square_bracket2.obj
mtllib square_bracket2.mtl
g default
v 0.5 -0.5 -0
v 0.4825 -0.5 -0
v -0.4825 -0.5 -0
v -0.5 -0.5 -0
v 0.5 -0.436667 -0
v 0.4825 -0.436667 -0
v -0.4825 -0.436667 -0
v -0.5 -0.436667 -0
v 0.5 0.436667 -0
v 0.4825 0.436667 -0
v -0.4825 0.436667 -0
v -0.5 0.436667 -0
v 0.5 0.5 -0
v 0.4825 0.5 -0
v -0.4825 0.5 -0
v -0.5 0.5 -0
v -0.243452 -0.5 -0
v 0.243452 -0.5 -0
v 0.243452 -0.436667 -0
v -0.243452 -0.436667 -0
v 0.243452 0.436667 -0
v -0.243452 0.436667 -0
v 0.243452 0.5 -0
v -0.243452 0.5 -0
vn 0 0 -1
vn 0 0 -1
vn 0 0 -1
vn 0 0 -1
vn 0 0 -1
vn 0 0 -1
vn 0 0 -1
vn 0 0 -1
vn 0 0 -1
vn 0 0 -1
vn 0 0 -1
vn 0 0 -1
vn 0 0 -1
vn 0 0 -1
vn 0 0 -1
vn 0 0 -1
vn 0 0 -1
vn 0 0 -1
vn 0 0 -1
vn 0 0 -1
vn 0 0 -1
vn 0 0 -1
vn 0 0 -1
vn 0 0 -1
vn 0 0 -1
vn 0 0 -1
vn 0 0 -1
vn 0 0 -1
vn 0 0 -1
vn 0 0 -1
vn 0 0 -1
vn 0 0 -1
vn 0 0 -1
vn 0 0 -1
vn 0 0 -1
vn 0 0 -1
vn 0 0 -1
vn 0 0 -1
vn 0 0 -1
vn 0 0 -1
g Default
usemtl Default
s off
l 4 3
l 2 1
l 1 5
f 6//1 5//2 1//3 2//4
f 8//5 7//6 3//7 4//8
l 8 4
l 5 9
f 10//9 9//10 5//11 6//12
f 12//13 11//14 7//15 8//16
l 12 8
l 9 13
f 14//17 13//18 9//19 10//20
f 16//21 15//22 11//23 12//24
l 16 12
l 15 16
l 13 14
f 3 17 17
f 18 18 2
f 19//25 6//26 2//27 18//28
f 7//29 20//30 17//31 3//32
f 23//33 14//34 10//35 21//36
f 15//37 24//38 22//39 11//40
f 24 24 15
f 14 23 23
